<?xml version="1.0" encoding="UTF-8"?><svg id="_レイヤー_2" xmlns="http://www.w3.org/2000/svg" viewBox="0 0 685 130"><defs><style>.cls-1{fill:#fff;}.cls-1,.cls-2{stroke-width:0px;}.cls-2{fill:#ec8d6d;}</style></defs><g id="_デザイン"><rect class="cls-2" x="0" y="0" width="685" height="130" rx="65" ry="65"/><path class="cls-1" d="m280.99,82.04c-2.69,0-4.92-.13-6.69-.4-1.77-.27-3.23-.67-4.37-1.21-1.14-.54-2.12-1.22-2.93-2.03-.46.33-1.04.71-1.77,1.16-.72.44-1.46.89-2.2,1.33-.75.44-1.4.82-1.96,1.12l-1.86-4.48c.51-.18,1.12-.42,1.84-.72.72-.3,1.42-.61,2.11-.91.68-.3,1.19-.54,1.52-.72v-9.46h-4.52v-3.95h8.85v12.84c.48,1.22,1.64,2.08,3.48,2.58,1.84.51,4.67.76,8.49.76,3.24,0,6.03-.06,8.36-.17,2.33-.12,4.22-.27,5.66-.47-.13.28-.27.71-.42,1.31s-.28,1.21-.38,1.84c-.1.63-.17,1.14-.19,1.52-.71,0-1.63,0-2.77.02-1.14.01-2.35.03-3.63.04-1.28.01-2.5.02-3.67.02h-2.96Zm-13.49-24.81c-.46-.56-1.06-1.19-1.82-1.9s-1.56-1.41-2.39-2.11c-.84-.7-1.61-1.26-2.32-1.69l2.85-2.93c.63.36,1.39.87,2.26,1.54.87.67,1.72,1.37,2.55,2.09.82.72,1.46,1.35,1.92,1.88-.23.2-.54.5-.95.89s-.8.79-1.2,1.2c-.39.4-.69.75-.89,1.03Zm23.94,19.91c-1.92-.79-3.67-1.86-5.24-3.23-1.57-1.37-2.84-2.93-3.8-4.67-.96,1.6-2.24,3.04-3.84,4.33-1.6,1.29-3.46,2.42-5.59,3.38-.18-.36-.43-.77-.76-1.26-.33-.48-.68-.94-1.04-1.39-.37-.44-.69-.77-.97-.97,4.2-1.57,7.05-3.94,8.55-7.11h-7.98v-3.99h8.97c0-.08,0-.15.02-.23s.02-.15.02-.23v-2.93h-7.87v-3.88h4.67c-.43-.96-.94-1.93-1.52-2.91-.58-.98-1.15-1.79-1.71-2.45l3.69-1.86c.66.81,1.32,1.76,1.98,2.83.66,1.08,1.19,2.02,1.6,2.83-.46.23-.96.47-1.52.74-.56.27-1.09.54-1.6.82h5.32c.38-.68.79-1.5,1.22-2.45.43-.95.82-1.88,1.18-2.77.35-.9.61-1.62.76-2.15l4.26,1.18c-.3.84-.73,1.84-1.27,3-.54,1.16-1.07,2.23-1.58,3.19h5.13v3.88h-8.06v3.38h9.65v3.99h-8.74c.73,1.54,1.85,2.93,3.34,4.16,1.49,1.23,3.32,2.24,5.47,3.02-.28.25-.6.61-.97,1.06-.37.46-.71.92-1.03,1.41-.32.48-.56.9-.74,1.25Z"/><path class="cls-1" d="m306.49,82.53v-19.61c-.48.61-.96,1.18-1.44,1.71-.48.53-.96,1.03-1.44,1.48-.38-.46-.87-.95-1.46-1.46-.6-.52-1.18-.94-1.77-1.27.94-.84,1.9-1.92,2.89-3.25s1.93-2.76,2.83-4.29c.9-1.53,1.67-3.02,2.32-4.46.65-1.45,1.1-2.7,1.35-3.76l4.1,1.37c-.68,2.28-1.65,4.57-2.89,6.88v26.68h-4.48Zm6.08-24.59v-3.57h23.71v3.57h-23.71Zm2.62,23.79v-11.17h18.54v11.17h-18.54Zm.61-29.26v-3.42h17.21v3.42h-17.21Zm0,10.83v-3.46h17.21v3.46h-17.21Zm0,5.32v-3.42h17.21v3.42h-17.21Zm4.18,9.38h9.01v-3.72h-9.01v3.72Z"/><path class="cls-1" d="m355.01,82.38c-.3-.51-.71-1.12-1.22-1.82s-1.09-1.32-1.75-1.82c2.69-.76,4.75-1.64,6.19-2.64,1.44-1,2.44-2.19,3-3.55-.81.4-1.62.61-2.43.61-1.93,0-3.48-.54-4.66-1.63-1.18-1.09-1.81-2.56-1.88-4.41-.05-1.27.2-2.4.76-3.4.56-1,1.34-1.79,2.36-2.38,1.01-.58,2.17-.87,3.46-.87.2,0,.38,0,.53.02.15.01.32.03.49.06-.05-.46-.1-.93-.15-1.41-.05-.48-.08-.99-.08-1.52-2.05.08-4.05.19-6,.34-1.95.15-3.74.32-5.36.51-1.62.19-2.96.41-4.03.67l-.65-4.41c.91-.08,2.19-.16,3.84-.25,1.65-.09,3.53-.18,5.64-.29,2.12-.1,4.3-.2,6.56-.3v-5.36h4.41v5.17c1.98-.07,3.86-.14,5.66-.21,1.8-.06,3.41-.11,4.83-.15,1.42-.04,2.53-.04,3.34-.02l-.3,4.45c-1.47-.18-3.41-.29-5.83-.32-2.42-.04-4.98-.03-7.7.02,0,.91.03,1.84.1,2.77.06.94.12,1.84.17,2.7,1.24,1.47,1.86,3.42,1.86,5.85,0,3.37-.98,6.2-2.93,8.49-1.95,2.29-4.7,4-8.25,5.11Zm3.84-13.04c.71-.05,1.27-.29,1.67-.72.4-.43.61-.99.61-1.67,0-.23-.02-.48-.06-.74s-.08-.55-.13-.86c-.53-.61-1.2-.91-2.01-.91-.71,0-1.3.23-1.79.69-.48.46-.71,1.04-.68,1.75,0,.73.22,1.34.67,1.8.44.47,1.02.69,1.73.66Z"/><path class="cls-1" d="m403.69,80.97c-3.04,0-5.28-.58-6.73-1.73s-2.17-2.57-2.17-4.24c0-1.09.27-2.01.8-2.77s1.23-1.35,2.09-1.77,1.79-.63,2.77-.63c1.87,0,3.39.58,4.54,1.75,1.15,1.17,1.89,2.61,2.22,4.33.94-.43,1.7-1.09,2.3-1.98.6-.88.89-1.95.89-3.19,0-1.06-.25-2.01-.76-2.85-.51-.84-1.22-1.5-2.15-1.99-.92-.49-2-.74-3.21-.74-1.7,0-3.17.2-4.43.61-1.25.41-2.39,1.05-3.4,1.94-.46.4-1.06.92-1.8,1.56-.75.63-1.45,1.21-2.11,1.71l-3.12-3.34c1.14-.66,2.36-1.49,3.65-2.51s2.6-2.14,3.91-3.38c1.32-1.24,2.57-2.53,3.76-3.86s2.25-2.64,3.19-3.93c-1.09.25-2.27.49-3.55.72-1.28.23-2.51.42-3.69.57s-2.17.25-2.98.3l-.84-4.33c.68.05,1.54.04,2.57-.02,1.03-.06,2.13-.15,3.33-.27,1.19-.11,2.35-.26,3.48-.44,1.13-.18,2.14-.36,3.04-.55s1.56-.39,2-.59l3.42,2.28c-.86,1.7-2.05,3.48-3.55,5.34-1.51,1.86-3.12,3.65-4.84,5.38.43-.2.91-.36,1.44-.47.53-.11,1.05-.17,1.56-.17,2,0,3.74.38,5.21,1.14,1.47.76,2.62,1.82,3.44,3.17s1.24,2.93,1.24,4.73c0,1.9-.48,3.62-1.42,5.17-.95,1.55-2.29,2.77-4.01,3.69s-3.75,1.37-6.08,1.37Zm-.49-4.18c-.13-.96-.42-1.74-.89-2.32s-1.08-.88-1.84-.88c-.41,0-.75.1-1.03.3-.28.2-.42.51-.42.91,0,.53.29.97.86,1.33.57.36,1.53.56,2.87.61.08.03.15.04.23.04h.23Z"/><path class="cls-1" d="m643,72.4h-62c-.83,0-1.5-.67-1.5-1.5s.67-1.5,1.5-1.5h58.53l-13.62-14.47c-.57-.6-.54-1.55.06-2.12.6-.57,1.55-.54,2.12.06l16,17c.41.44.52,1.07.28,1.62-.24.55-.78.91-1.38.91Z"/></g></svg>